<?xml version="1.0" ?><!DOCTYPE svg  PUBLIC '-//W3C//DTD SVG 1.1//EN'  'http://www.w3.org/Graphics/SVG/1.1/DTD/svg11.dtd'><svg height="100%" style="fill-rule:evenodd;clip-rule:evenodd;stroke-linejoin:round;stroke-miterlimit:2;" version="1.1" viewBox="0 0 32 32" width="100%" xml:space="preserve" xmlns="http://www.w3.org/2000/svg" xmlns:serif="http://www.serif.com/" xmlns:xlink="http://www.w3.org/1999/xlink"><path d="M9.589,17.997l3.521,-0.003c0.629,2.802 3.9,5.002 7.89,5.002c1.083,-0 2.112,-0.162 3.05,-0.454c-2.139,1.22 -4.962,1.956 -8.051,1.956c-3.849,-0 -7.284,-1.142 -9.499,-2.94c-1.244,-1.01 -2.099,-2.224 -2.39,-3.558l2.545,-0c0.978,-0.001 1.956,-0.002 2.934,-0.003Z" style="fill:#fbeeac;"/><path d="M27.859,17.999c-0.656,2.312 -3.502,3.997 -6.859,3.997c-1.532,-0 -2.958,-0.351 -4.118,-0.953c1.054,-0.826 1.734,-1.836 1.999,-3.008c2.62,-0.002 7.009,-0.03 8.978,-0.036Z" style="fill:#8ac4d0;"/><path d="M13.5,15.999c0.116,0 0.5,0.06 0.5,0.501c0,0.396 -0.354,0.5 -0.5,0.5c-0,0 -10,0 -10,0c-0.317,-0 -0.5,-0.235 -0.5,-0.5c0,-0.342 0.2,-0.501 0.5,-0.501c-0,0 -0,0 10,0Zm15.001,-0c0.311,-0 0.5,0.25 0.5,0.501c0,0.25 -0.165,0.499 -0.5,0.499c-0,0 -10,0 -10,0c-0.332,0 -0.501,-0.249 -0.501,-0.499c-0,-0.251 0.108,-0.501 0.501,-0.501c-0,-0 -0,-0 10,-0Z" style="fill:#28527a;"/><path d="M18.278,15.015c-0.316,0.048 -0.61,0.195 -0.839,0.423c-0.281,0.281 -0.439,0.663 -0.439,1.061l0,0.001c0,0.398 0.158,0.779 0.439,1.061c0.132,0.131 0.285,0.235 0.451,0.309c-0.256,1.017 -0.943,1.92 -1.905,2.619c-0.955,-0.699 -1.627,-1.6 -1.878,-2.617c0.168,-0.075 0.322,-0.179 0.454,-0.311c0.281,-0.282 0.439,-0.663 0.439,-1.061l-0,-0.001c0,-0.398 -0.158,-0.779 -0.439,-1.06c-0.229,-0.229 -0.523,-0.376 -0.838,-0.423l-4.723,-4.726l-0,-3.289c-0,-0.276 -0.224,-0.5 -0.5,-0.5c-0.276,0 -0.5,0.224 -0.5,0.5l0,3.289l-4.722,4.726c-0.316,0.047 -0.61,0.194 -0.839,0.423c-0.281,0.281 -0.439,0.662 -0.439,1.06c-0,0 -0,0.001 -0,0.001c-0,0.398 0.158,0.779 0.439,1.061c0.18,0.18 0.401,0.309 0.641,0.379c0.277,1.646 1.269,3.161 2.79,4.394c2.364,1.919 6.022,3.164 10.129,3.164c4.109,-0 7.769,-1.246 10.133,-3.167c1.518,-1.233 2.508,-2.745 2.786,-4.39c0.241,-0.07 0.463,-0.2 0.644,-0.38c0.281,-0.282 0.439,-0.663 0.439,-1.061l-0,-0.001c-0,-0.398 -0.158,-0.78 -0.439,-1.061c-0.228,-0.228 -0.522,-0.375 -0.837,-0.423l-4.725,-4.724l-0,-3.291c0,-0.276 -0.224,-0.5 -0.5,-0.5c-0.276,-0 -0.5,0.224 -0.5,0.5l-0,3.289l-4.722,4.726Zm-2.598,6.455c-1.332,-0.893 -2.261,-2.11 -2.569,-3.47l-9.001,0c0.29,1.333 1.145,2.548 2.39,3.558c2.215,1.798 5.65,2.94 9.499,2.94c3.089,-0 5.911,-0.736 8.05,-1.956c-0.938,0.292 -1.967,0.454 -3.049,0.454c-2.006,-0 -3.83,-0.556 -5.228,-1.465c-0.033,-0.017 -0.063,-0.037 -0.092,-0.061Zm12.179,-3.47l-8.972,-0c-0.261,1.159 -0.967,2.213 -1.992,3.05c1.157,0.597 2.578,0.946 4.105,0.946c3.357,-0 6.203,-1.685 6.859,-3.996Zm1.142,-1.501l-0,0.001c-0,0.133 -0.053,0.26 -0.147,0.354c-0.093,0.093 -0.221,0.146 -0.353,0.146l-10.001,0c-0.133,0 -0.26,-0.053 -0.354,-0.146c-0.093,-0.094 -0.146,-0.221 -0.146,-0.354c-0,-0 -0,-0.001 -0,-0.001c0,-0.133 0.053,-0.26 0.146,-0.354c0.094,-0.094 0.221,-0.146 0.354,-0.146l10.001,-0c0.132,-0 0.26,0.052 0.353,0.146c0.094,0.094 0.147,0.221 0.147,0.354Zm-15.001,0l-0,0.001c0,0.133 -0.053,0.26 -0.146,0.354c-0.094,0.093 -0.221,0.146 -0.354,0.146c-0,0 -10,0 -10,0c-0.133,-0 -0.26,-0.053 -0.354,-0.146c-0.094,-0.094 -0.146,-0.221 -0.146,-0.354l-0,-0.001c-0,-0.132 0.052,-0.26 0.146,-0.353c0.094,-0.094 0.221,-0.147 0.354,-0.147c-0,0 10,0 10,0c0.133,0 0.26,0.053 0.354,0.147c0.093,0.093 0.146,0.221 0.146,0.353Zm-9.292,-1.5l3.293,0l-0.001,-3.295l-3.292,3.295Zm7.585,0l-3.293,-3.294l0.001,3.294l3.292,0Zm15.001,-0l-3.294,-3.294l-0.001,3.291l0,0.003l3.295,-0Zm-7.586,-0l3.291,-0l0,-0.003l0.001,-3.292l-3.292,3.295Z" id="Hammock"/></svg>