<?xml version="1.0" ?><svg id="Icon" viewBox="0 0 64 64" xmlns="http://www.w3.org/2000/svg" xmlns:xlink="http://www.w3.org/1999/xlink"><defs><style>.cls-1{fill:url(#linear-gradient);}.cls-2{fill:url(#linear-gradient-2);}.cls-3{fill:url(#linear-gradient-3);}</style><linearGradient gradientUnits="userSpaceOnUse" id="linear-gradient" x1="46.594" x2="18.867" y1="32" y2="32"><stop offset="0" stop-color="#3d82c4"/><stop offset="1" stop-color="#3374ba"/></linearGradient><linearGradient gradientUnits="userSpaceOnUse" id="linear-gradient-2" x1="35.04" x2="30.343" y1="35.354" y2="35.354"><stop offset="0" stop-color="#e4f2fc"/><stop offset="1" stop-color="#bdddf4"/></linearGradient><linearGradient gradientUnits="userSpaceOnUse" id="linear-gradient-3" x1="27.787" x2="36.54" y1="11.876" y2="20.629"><stop offset="0" stop-color="#95c8ec"/><stop offset="1" stop-color="#70b2e2"/></linearGradient></defs><path class="cls-1" d="M41.958,15.96A10,10,0,1,0,22,15.054a14.748,14.748,0,0,1-1.059,7.475V52.946a6,6,0,0,0,6,6H37.059a6,6,0,0,0,6-6V22.529A12.92,12.92,0,0,1,41.958,15.96Z"/><path class="cls-2" d="M34.228,36.354a1,1,0,0,0,0-2H33v-4h1.228a1,1,0,0,0,0-2H33V22.09a1,1,0,0,0-2,0v6.264H29.772a1,1,0,0,0,0,2H31v4H29.772a1,1,0,0,0,0,2H31v4H29.772a1,1,0,0,0,0,2H31v6.265a1,1,0,0,0,2,0V42.354h1.228a1,1,0,0,0,0-2H33v-4Z"/><circle class="cls-3" cx="32" cy="16.089" r="6"/></svg>